# xmcd
#
# Track frame offsets: 
#        150
#        18087
#        38250
#        55850
#        71310
#        85720
#        97135
#        114085
#        128377
#        144772
#
# Disc length: 2235 seconds
#
# Revision: 1
# Processed by: cddbd v1.5.2PL0 Copyright (c) Steve Scherf et al.
# Submitted via: ExactAudioCopyFreeDBPlugin 1.0
#
DISCID=6508b90a
DTITLE=Various Artist - Retro Jump:  Swinging Blues Instrumentals (Ro
DTITLE=under EasyDisc)
DYEAR=1999
DGENRE=Blues
TTITLE0=Clarence "Gatemouth" Brown - Gate Walks to Board
TTITLE1="Sax" Gordon - For Whom the Horn Honks
TTITLE2=Ronnie Earl and The Broadcasters - Narcolepsy
TTITLE3=Pat Boyack and The Prowlers - Ol' Blondie Swings Again
TTITLE4=Tri-Sax-ual Soul Champs - Blue Am I
TTITLE5=Roy Gaines - Roy Jumps the Gator
TTITLE6=Roomful of Blues - Retro Jump
TTITLE7=Kirk "Eli" Fletcher - School Street Shuffle
TTITLE8=Johnny Marshall - South Georgia Boogie
TTITLE9=Roomful of Blues - Porky's Blues (ft Porky Cohen)
EXTD=
EXTT0=
EXTT1=
EXTT2=
EXTT3=
EXTT4=
EXTT5=
EXTT6=
EXTT7=
EXTT8=
EXTT9=
PLAYORDER=
